<svg width="89" height="177" viewBox="0 0 89 177" fill="none" xmlns="http://www.w3.org/2000/svg">
<g opacity="0.5">
<path d="M177 88.5C177 134.043 143.108 171.611 99.3484 177L99.3484 133.806C119.657 128.888 134.748 110.47 134.748 88.5C134.748 66.5305 119.657 48.1122 99.3484 43.194L99.3484 -3.39426e-06C143.108 5.38865 177 42.9567 177 88.5Z" fill="url(#paint0_linear_143_8566)"/>
<path d="M77.6516 133.806L77.6516 177C33.8919 171.611 -5.85922e-06 134.043 -3.86846e-06 88.5C-1.8777e-06 42.9567 33.8919 5.38865 77.6516 -4.34266e-06L77.6516 43.194C57.3432 48.1122 42.2516 66.5305 42.2516 88.5C42.2516 110.469 57.3432 128.888 77.6516 133.806Z" fill="url(#paint1_linear_143_8566)"/>
<path d="M59.3806 88.5C59.3806 104.703 72.4178 117.838 88.5 117.838C104.582 117.838 117.619 104.703 117.619 88.5C117.619 72.2973 104.582 59.1624 88.5 59.1624C72.4178 59.1624 59.3806 72.2973 59.3806 88.5Z" fill="url(#paint2_linear_143_8566)"/>
</g>
<defs>
<linearGradient id="paint0_linear_143_8566" x1="177" y1="89.208" x2="-113.462" y2="90.9003" gradientUnits="userSpaceOnUse">
<stop offset="0.285271" stop-opacity="0.25"/>
<stop offset="1" stop-color="white" stop-opacity="0"/>
</linearGradient>
<linearGradient id="paint1_linear_143_8566" x1="177" y1="89.208" x2="-113.462" y2="90.9003" gradientUnits="userSpaceOnUse">
<stop offset="0.285271" stop-opacity="0.25"/>
<stop offset="1" stop-color="white" stop-opacity="0"/>
</linearGradient>
<linearGradient id="paint2_linear_143_8566" x1="177" y1="89.208" x2="-113.462" y2="90.9003" gradientUnits="userSpaceOnUse">
<stop offset="0.285271" stop-opacity="0.25"/>
<stop offset="1" stop-color="white" stop-opacity="0"/>
</linearGradient>
</defs>
</svg>
