<svg width="50" height="50" viewBox="0 0 50 50" fill="none" xmlns="http://www.w3.org/2000/svg">
<path d="M25 8.33301C33.5 8.33301 40.5209 14.6872 41.5417 22.9163H33.0834C32.1459 19.3122 28.875 16.6663 25 16.6663C21.125 16.6663 17.8542 19.3122 16.9375 22.9163H8.45837C9.47921 14.6872 16.5 8.33301 25 8.33301Z" fill="#FF6568"/>
<path d="M25 4.16699C13.5 4.16699 4.16663 13.5003 4.16663 25.0003C4.16663 36.5003 13.5 45.8337 25 45.8337C36.5 45.8337 45.8333 36.5003 45.8333 25.0003C45.8333 13.5003 36.5 4.16699 25 4.16699ZM25 8.33366C33.5 8.33366 40.5208 14.6878 41.5416 22.917H33.0833C32.1458 19.3128 28.875 16.667 25 16.667C21.125 16.667 17.8541 19.3128 16.9375 22.917H8.45829C9.47913 14.6878 16.5 8.33366 25 8.33366ZM29.1666 25.0003C29.1666 27.292 27.2916 29.167 25 29.167C22.7083 29.167 20.8333 27.292 20.8333 25.0003C20.8333 22.7087 22.7083 20.8337 25 20.8337C27.2916 20.8337 29.1666 22.7087 29.1666 25.0003ZM25 41.667C16.5 41.667 9.47913 35.3128 8.45829 27.0837H16.9166C17.8333 30.6878 21.1041 33.3337 24.9791 33.3337C28.8541 33.3337 32.125 30.6878 33.0416 27.0837H41.5C40.5208 35.3128 33.5 41.667 25 41.667Z" fill="black"/>
</svg>
